<?xml version="1.0" encoding="utf-8"?>
<!-- Generator: Adobe Illustrator 14.0.0, SVG Export Plug-In  -->
<!DOCTYPE svg PUBLIC "-//W3C//DTD SVG 1.1//EN" "http://www.w3.org/Graphics/SVG/1.1/DTD/svg11.dtd" [
	<!ENTITY ns_flows "http://ns.adobe.com/Flows/1.0/">
]>
<svg version="1.1"
	 xmlns="http://www.w3.org/2000/svg" xmlns:xlink="http://www.w3.org/1999/xlink" xmlns:a="http://ns.adobe.com/AdobeSVGViewerExtensions/3.0/"
	 x="0px" y="0px" width="166px" height="166px" viewBox="-1 -1 166 166" enable-background="new -1 -1 166 166"
	 xml:space="preserve">
<defs>
</defs>
<g display="none">
	<path display="inline" fill="#FFFEFC" d="M82,159c-42.458,0-77-34.542-77-77S39.542,5,82,5s77,34.542,77,77S124.458,159,82,159
		L82,159z"/>
	<path display="inline" fill="#FFFEFC" d="M82,10c39.764,0,72,32.236,72,72s-32.236,72-72,72s-72-32.235-72-72S42.236,10,82,10
		 M82,0C36.785,0,0,36.785,0,82c0,45.215,36.785,82,82,82s82-36.785,82-82C164,36.785,127.215,0,82,0L82,0z"/>
</g>
<path fill="#EB9E00" d="M82,11c39.149,0,71,31.851,71,71c0,39.15-31.851,71-71,71S11,121.15,11,82C11,42.851,42.851,11,82,11 M82,10
	c-39.764,0-72,32.236-72,72s32.236,72,72,72c39.766,0,72-32.236,72-72S121.766,10,82,10L82,10z"/>
<path fill="#EB9E00" d="M99.49,94.121l12.898,21.842H97.137L85.89,95.617h3.641C93.029,95.617,96.376,95.114,99.49,94.121
	 M99.94,92.917c-3.154,1.103-6.646,1.7-10.41,1.7h-5.336l12.353,22.346h17.594L99.94,92.917L99.94,92.917z"/>
<path fill="#EB9E00" d="M89.53,45.962c16.013,0,23.18,11.154,23.18,22.208c0,6.08-2.124,11.621-5.979,15.604
	c-4.184,4.32-10.131,6.604-17.2,6.604H71.178h-1v1v24.584H56.851v-70H89.53 M70.178,78.885h1h16.302
	c6.816,0,11.577-4.406,11.577-10.715c0-6.308-4.761-10.714-11.577-10.714H71.178h-1v1v19.429V78.885 M89.53,44.962h-33.68v72h15.327
	V91.378H89.53c15.543,0,24.18-10.687,24.18-23.208C113.71,55.542,105.184,44.962,89.53,44.962L89.53,44.962z M71.178,77.885V58.457
	h16.302c6.046,0,10.577,3.668,10.577,9.714c0,5.937-4.531,9.715-10.577,9.715H71.178L71.178,77.885z"/>
</svg>
